<svg xmlns="http://www.w3.org/2000/svg" viewBox="0 0 700 50">
    <path stroke="black" fill="#b2b2b2"
          d="M680.5,35.5a13.47,13.47,0,0,0-9.7-12.43L596,4.37A157.24,
                      157.24,0,0,0,564.5.5h-448A130.63,130.63,0,0,0,85.17,5.1L10.07,27.63A14.22,
                      14.22,0,0,0,.5,40.5c0,5.52,4.28,8.7,9.57,7.13L85.17,25.1a130.7,130.7,0,0,1,
                      31.33-4.6h448A156.44,156.44,0,0,1,596,24.38l74.77,18.7c5.36,1.33,9.7-2.06,
                      9.7-7.58Z"/>
</svg>